<?xml version="1.0" encoding="UTF-8"?>
<svg version="1.1" xmlns="http://www.w3.org/2000/svg" width="150" height="150">
<path d="M0 0 C49.5 0 99 0 150 0 C150 49.5 150 99 150 150 C100.5 150 51 150 0 150 C0 100.5 0 51 0 0 Z " fill="#FEFEFE" transform="translate(0,0)"/>
<path d="M0 0 C2 2 2 2 2.24050903 3.83499146 C2.23606781 4.57667572 2.23162659 5.31835999 2.22705078 6.08251953 C2.22689972 6.92324005 2.22674866 7.76396057 2.22659302 8.63015747 C2.21627045 9.53853363 2.20594788 10.44690979 2.1953125 11.3828125 C2.1924826 12.31221649 2.18965271 13.24162048 2.18673706 14.19918823 C2.17552069 17.1745885 2.1504136 20.14969035 2.125 23.125 C2.11497208 25.13931858 2.1058459 27.15364186 2.09765625 29.16796875 C2.07557661 34.11209456 2.04103693 39.05599665 2 44 C-3.75 47 -3.75 47 -6 47 C-6 47.66 -6 48.32 -6 49 C-7.98 49.495 -7.98 49.495 -10 50 C-10 50.66 -10 51.32 -10 52 C-12.97 52.495 -12.97 52.495 -16 53 C-16 53.66 -16 54.32 -16 55 C-17.07314453 55.39832031 -17.07314453 55.39832031 -18.16796875 55.8046875 C-21.06904319 57.02914099 -23.63015864 58.47983063 -26.3125 60.125 C-27.19550781 60.66382813 -28.07851562 61.20265625 -28.98828125 61.7578125 C-29.65214844 62.16773438 -30.31601563 62.57765625 -31 63 C-29.783125 63.0825 -28.56625 63.165 -27.3125 63.25 C-23.21534129 63.73758372 -20.99860092 65.09510536 -18 68 C-17.505 66.02 -17.505 66.02 -17 64 C-13.87517438 63.91312504 -10.75065754 63.85965432 -7.625 63.8125 C-6.29082031 63.77479492 -6.29082031 63.77479492 -4.9296875 63.73632812 C-4.07890625 63.72666016 -3.228125 63.71699219 -2.3515625 63.70703125 C-1.56604004 63.6913208 -0.78051758 63.67561035 0.02880859 63.65942383 C0.67930176 63.77181396 1.32979492 63.8842041 2 64 C4 67 4 67 4 70 C4.66 70 5.32 70 6 70 C6.66 68.02 7.32 66.04 8 64 C10.875 63.8125 10.875 63.8125 14 64 C16 67 16 67 15.80859375 68.8671875 C14.81670528 71.48347303 13.5203086 73.73690277 12.0625 76.125 C11.53785156 76.99382812 11.01320313 77.86265625 10.47265625 78.7578125 C9 81 9 81 7 83 C1.66666667 83.33333333 1.66666667 83.33333333 -1 82 C-1.8515625 79.49609375 -1.8515625 79.49609375 -2.625 76.4375 C-2.88539062 75.42558594 -3.14578125 74.41367188 -3.4140625 73.37109375 C-3.60742188 72.58863281 -3.80078125 71.80617188 -4 71 C-4.70894908 74.81060131 -5 78.08021183 -5 82 C-9.62 82 -14.24 82 -19 82 C-19.33 81.01 -19.66 80.02 -20 79 C-20.721875 79.474375 -21.44375 79.94875 -22.1875 80.4375 C-26.49410273 82.61637502 -31.06318581 82.55627169 -35.8046875 82.8046875 C-38.44019923 82.96578235 -40.9077762 83.28675088 -43.5 83.75 C-47.49670425 84.03547887 -48.90665994 83.45647593 -52 81 C-52.66 80.34 -53.32 79.68 -54 79 C-54.495 79.495 -54.99 79.99 -55.5 80.5 C-59.16894414 82.70136649 -61.74317925 82.27027433 -66 82 C-66.99 81.67 -67.98 81.34 -69 81 C-69.125 78.625 -69.125 78.625 -69 76 C-68.01 75.01 -68.01 75.01 -67 74 C-67.20625 73.05125 -67.4125 72.1025 -67.625 71.125 C-68 68 -68 68 -66.625 65.625 C-62.82925872 63.2752554 -59.35881127 63.51033612 -55 64 C-54.01 64.33 -53.02 64.66 -52 65 C-48.88667752 64.33131686 -48.88667752 64.33131686 -47.8125 61.9375 C-47.544375 61.298125 -47.27625 60.65875 -47 60 C-39.43791722 59.87182911 -39.43791722 59.87182911 -36.4375 60.75 C-32.42527148 61.16151062 -30.26934437 59.26339225 -27 57 C-26.67 56.01 -26.34 55.02 -26 54 C-25.34 54 -24.68 54 -24 54 C-24 53.34 -24 52.68 -24 52 C-24.75925781 52.44472656 -25.51851562 52.88945313 -26.30078125 53.34765625 C-27.29464844 53.91355469 -28.28851563 54.47945312 -29.3125 55.0625 C-30.29863281 55.63097656 -31.28476563 56.19945312 -32.30078125 56.78515625 C-35 58 -35 58 -38 57 C-38.22320235 51.84078257 -38.38610225 46.68439491 -38.49438477 41.52148438 C-38.53953126 39.76740561 -38.60086921 38.01366349 -38.67895508 36.26074219 C-39.30754534 21.78262391 -39.30754534 21.78262391 -36.29931641 17.68139648 C-33.93398716 16.08089336 -31.65182333 15.05164962 -29 14 C-27.36689025 13.06054133 -25.7468789 12.097953 -24.140625 11.11328125 C-22.51218668 10.17660353 -20.8819707 9.24300961 -19.25 8.3125 C-17.60919293 7.37141112 -15.96856263 6.43001396 -14.328125 5.48828125 C-13.19467651 4.84113159 -13.19467651 4.84113159 -12.03833008 4.1809082 C-10.37024584 3.21450223 -8.72622423 2.20666851 -7.08984375 1.1875 C-4.52240546 -0.27138082 -2.90813098 -0.39299067 0 0 Z " fill="#3B3235" transform="translate(100,27)"/>
<path d="M0 0 C-1.32 1.65 -2.64 3.3 -4 5 C-3.34 5.33 -2.68 5.66 -2 6 C-2.81404297 6.50660156 -2.81404297 6.50660156 -3.64453125 7.0234375 C-4.71767578 7.69246094 -4.71767578 7.69246094 -5.8125 8.375 C-6.52019531 8.81585938 -7.22789063 9.25671875 -7.95703125 9.7109375 C-9.65432039 10.78188476 -11.33014358 11.88676239 -13 13 C-11.783125 13.0825 -10.56625 13.165 -9.3125 13.25 C-5.21534129 13.73758372 -2.99860092 15.09510536 0 18 C0.33 16.68 0.66 15.36 1 14 C4.12482562 13.91312504 7.24934246 13.85965432 10.375 13.8125 C11.26445313 13.78736328 12.15390625 13.76222656 13.0703125 13.73632812 C13.92109375 13.72666016 14.771875 13.71699219 15.6484375 13.70703125 C16.82672119 13.68346558 16.82672119 13.68346558 18.02880859 13.65942383 C18.67930176 13.77181396 19.32979492 13.8842041 20 14 C22 17 22 17 22 20 C22.66 20 23.32 20 24 20 C24.66 18.02 25.32 16.04 26 14 C28.875 13.8125 28.875 13.8125 32 14 C34 17 34 17 33.80859375 18.8671875 C32.81670528 21.48347303 31.5203086 23.73690277 30.0625 26.125 C29.53785156 26.99382812 29.01320313 27.86265625 28.47265625 28.7578125 C27 31 27 31 25 33 C19.66666667 33.33333333 19.66666667 33.33333333 17 32 C16.1484375 29.49609375 16.1484375 29.49609375 15.375 26.4375 C14.98441406 24.91962891 14.98441406 24.91962891 14.5859375 23.37109375 C14.39257812 22.58863281 14.19921875 21.80617188 14 21 C13.29105092 24.81060131 13 28.08021183 13 32 C8.38 32 3.76 32 -1 32 C-1.33 31.01 -1.66 30.02 -2 29 C-2.721875 29.474375 -3.44375 29.94875 -4.1875 30.4375 C-8.49410273 32.61637502 -13.06318581 32.55627169 -17.8046875 32.8046875 C-20.44019923 32.96578235 -22.9077762 33.28675088 -25.5 33.75 C-29.49670425 34.03547887 -30.90665994 33.45647593 -34 31 C-34.66 30.34 -35.32 29.68 -36 29 C-36.495 29.495 -36.99 29.99 -37.5 30.5 C-41.16894414 32.70136649 -43.74317925 32.27027433 -48 32 C-48.99 31.67 -49.98 31.34 -51 31 C-51.125 28.625 -51.125 28.625 -51 26 C-50.34 25.34 -49.68 24.68 -49 24 C-49.20625 23.05125 -49.4125 22.1025 -49.625 21.125 C-50 18 -50 18 -48.625 15.625 C-44.82925872 13.2752554 -41.35881127 13.51033612 -37 14 C-36.01 14.33 -35.02 14.66 -34 15 C-30.88667752 14.33131686 -30.88667752 14.33131686 -29.8125 11.9375 C-29.544375 11.298125 -29.27625 10.65875 -29 10 C-21.43791722 9.87182911 -21.43791722 9.87182911 -18.4375 10.75 C-14.42527148 11.16151062 -12.26934437 9.26339225 -9 7 C-8.67 6.01 -8.34 5.02 -8 4 C-7.34 4 -6.68 4 -6 4 C-6.495 2.515 -6.495 2.515 -7 1 C-3.375 -1.125 -3.375 -1.125 0 0 Z " fill="#135577" transform="translate(82,77)"/>
<path d="M0 0 C2 2 2 2 2.24050903 3.83499146 C2.2338472 4.94751785 2.2338472 4.94751785 2.22705078 6.08251953 C2.22689972 6.92324005 2.22674866 7.76396057 2.22659302 8.63015747 C2.21627045 9.53853363 2.20594788 10.44690979 2.1953125 11.3828125 C2.1924826 12.31221649 2.18965271 13.24162048 2.18673706 14.19918823 C2.17552069 17.1745885 2.1504136 20.14969035 2.125 23.125 C2.11497208 25.13931858 2.1058459 27.15364186 2.09765625 29.16796875 C2.07557661 34.11209456 2.04103693 39.05599665 2 44 C-3.75 47 -3.75 47 -6 47 C-6 47.66 -6 48.32 -6 49 C-7.98 49.495 -7.98 49.495 -10 50 C-10 50.66 -10 51.32 -10 52 C-12.97 52.495 -12.97 52.495 -16 53 C-16 53.66 -16 54.32 -16 55 C-17.98 55 -19.96 55 -22 55 C-20.81344673 50.55042525 -19.90326748 48.45348242 -16 46 C-14.32963607 44.67130142 -12.66215268 43.33895632 -11 42 C-12.6616804 37.87582937 -15.62338018 34.93445961 -18.625 31.75 C-19.140625 31.19570313 -19.65625 30.64140625 -20.1875 30.0703125 C-21.45425035 28.7097288 -22.72657815 27.35434163 -24 26 C-22.65289578 21.95868733 -20.61571666 21.09711566 -17 19 C-16.01 19 -15.02 19 -14 19 C-13.67 22.63 -13.34 26.26 -13 30 C-11.02 30.33 -9.04 30.66 -7 31 C-7 30.34 -7 29.68 -7 29 C-6.34 29 -5.68 29 -5 29 C-5 21.41 -5 13.82 -5 6 C-10.00007999 8.57869164 -10.00007999 8.57869164 -14.99072266 11.17553711 C-18.99899931 13.21122064 -22.45980966 14.54884544 -27 15 C-25.87215924 11.61647771 -25.54257785 11.4459123 -22.578125 9.84375 C-21.88203125 9.46089844 -21.1859375 9.07804687 -20.46875 8.68359375 C-19.7365625 8.29300781 -19.004375 7.90242188 -18.25 7.5 C-16.81741303 6.71929163 -15.38511476 5.93805323 -13.953125 5.15625 C-12.92989136 4.60457153 -12.92989136 4.60457153 -11.88598633 4.04174805 C-10.28074853 3.15507495 -8.71186942 2.20309069 -7.15234375 1.23828125 C-4.54768696 -0.26022365 -2.95916863 -0.39988765 0 0 Z " fill="#2E6E95" transform="translate(100,27)"/>
<path d="M0 0 C3.12482562 -0.08687496 6.24934246 -0.14034568 9.375 -0.1875 C10.26445313 -0.21263672 11.15390625 -0.23777344 12.0703125 -0.26367188 C12.92109375 -0.27333984 13.771875 -0.28300781 14.6484375 -0.29296875 C15.82672119 -0.31653442 15.82672119 -0.31653442 17.02880859 -0.34057617 C17.67930176 -0.22818604 18.32979492 -0.1157959 19 0 C21 3 21 3 21 6 C21.66 6 22.32 6 23 6 C23.66 4.02 24.32 2.04 25 0 C27.875 -0.1875 27.875 -0.1875 31 0 C33 3 33 3 32.80859375 4.8671875 C31.81670528 7.48347303 30.5203086 9.73690277 29.0625 12.125 C28.53785156 12.99382812 28.01320312 13.86265625 27.47265625 14.7578125 C26 17 26 17 24 19 C18.66666667 19.33333333 18.66666667 19.33333333 16 18 C15.1484375 15.49609375 15.1484375 15.49609375 14.375 12.4375 C14.11460938 11.42558594 13.85421875 10.41367188 13.5859375 9.37109375 C13.39257812 8.58863281 13.19921875 7.80617188 13 7 C12.29105092 10.81060131 12 14.08021183 12 18 C7.38 18 2.76 18 -2 18 C-2.33 17.01 -2.66 16.02 -3 15 C-3.763125 15.495 -4.52625 15.99 -5.3125 16.5 C-10.28101775 18.52109197 -14.70651036 18.25431356 -20 18 C-20.33 17.01 -20.66 16.02 -21 15 C-19.77023438 14.94392578 -19.77023438 14.94392578 -18.515625 14.88671875 C-17.43796875 14.82097656 -16.3603125 14.75523438 -15.25 14.6875 C-13.64898437 14.60048828 -13.64898437 14.60048828 -12.015625 14.51171875 C-8.75041713 13.9576485 -7.28691805 13.37321684 -5 11 C-4.31149171 8.9683434 -4.31149171 8.9683434 -4.25 6.8125 C-4.1675 5.554375 -4.085 4.29625 -4 3 C-3.01 3.33 -2.02 3.66 -1 4 C-0.67 2.68 -0.34 1.36 0 0 Z " fill="#336581" transform="translate(83,91)"/>
<path d="M0 0 C1.765625 1.359375 1.765625 1.359375 3 3 C3.1875 5.6875 3.1875 5.6875 3 8 C2.01 8.495 2.01 8.495 1 9 C1.91783124 11.6450037 1.91783124 11.6450037 4 14 C6.78268131 14.70146758 9.20469875 14.6081827 12 14 C15.86218021 11.03899517 16.171407 5.56213558 17 1 C17.66 1 18.32 1 19 1 C18.47788565 6.84768068 17.44628533 11.63698985 15 17 C11.43528609 18.18823797 8.7441664 18.26274852 5 18 C2.5625 16.5 2.5625 16.5 1 15 C0.505 15.495 0.01 15.99 -0.5 16.5 C-4.16894414 18.70136649 -6.74317925 18.27027433 -11 18 C-11.99 17.67 -12.98 17.34 -14 17 C-14.125 14.625 -14.125 14.625 -14 12 C-13.34 11.34 -12.68 10.68 -12 10 C-12.20625 9.05125 -12.4125 8.1025 -12.625 7.125 C-13 4 -13 4 -11.625 1.625 C-7.9124089 -0.67327068 -4.26846619 -0.87255939 0 0 Z " fill="#1B100B" transform="translate(45,91)"/>
<path d="M0 0 C2 2 2 2 2.24050903 3.83499146 C2.2338472 4.94751785 2.2338472 4.94751785 2.22705078 6.08251953 C2.22689972 6.92324005 2.22674866 7.76396057 2.22659302 8.63015747 C2.21627045 9.53853363 2.20594788 10.44690979 2.1953125 11.3828125 C2.1924826 12.31221649 2.18965271 13.24162048 2.18673706 14.19918823 C2.17552069 17.1745885 2.1504136 20.14969035 2.125 23.125 C2.11497208 25.13931858 2.1058459 27.15364186 2.09765625 29.16796875 C2.07557661 34.11209456 2.04103693 39.05599665 2 44 C1.01 44.495 1.01 44.495 0 45 C-0.495 35.1 -0.495 35.1 -1 25 C-1.66 26.32 -2.32 27.64 -3 29 C-3.66 29 -4.32 29 -5 29 C-5 21.41 -5 13.82 -5 6 C-10.00007999 8.57869164 -10.00007999 8.57869164 -14.99072266 11.17553711 C-18.99899931 13.21122064 -22.45980966 14.54884544 -27 15 C-25.87215924 11.61647771 -25.54257785 11.4459123 -22.578125 9.84375 C-21.88203125 9.46089844 -21.1859375 9.07804687 -20.46875 8.68359375 C-19.7365625 8.29300781 -19.004375 7.90242188 -18.25 7.5 C-16.81741303 6.71929163 -15.38511476 5.93805323 -13.953125 5.15625 C-12.92989136 4.60457153 -12.92989136 4.60457153 -11.88598633 4.04174805 C-10.28074853 3.15507495 -8.71186942 2.20309069 -7.15234375 1.23828125 C-4.54768696 -0.26022365 -2.95916863 -0.39988765 0 0 Z " fill="#ACBCCD" transform="translate(100,27)"/>
<path d="M0 0 C0.66 0 1.32 0 2 0 C2.495 3.96 2.495 3.96 3 8 C2.34 7.34 1.68 6.68 1 6 C0.29105092 9.81060131 0 13.08021183 0 17 C-4.62 17 -9.24 17 -14 17 C-14.33 16.01 -14.66 15.02 -15 14 C-15.763125 14.495 -16.52625 14.99 -17.3125 15.5 C-22.28101775 17.52109197 -26.70651036 17.25431356 -32 17 C-32.33 16.01 -32.66 15.02 -33 14 C-31.77023438 13.94392578 -31.77023438 13.94392578 -30.515625 13.88671875 C-29.43796875 13.82097656 -28.3603125 13.75523438 -27.25 13.6875 C-25.64898437 13.60048828 -25.64898437 13.60048828 -24.015625 13.51171875 C-20.75041713 12.9576485 -19.28691805 12.37321684 -17 10 C-16.31149171 7.9683434 -16.31149171 7.9683434 -16.25 5.8125 C-16.1675 4.554375 -16.085 3.29625 -16 2 C-15.34 2.33 -14.68 2.66 -14 3 C-13.55078125 4.99609375 -13.55078125 4.99609375 -13.3125 7.4375 C-13.22613281 8.24058594 -13.13976562 9.04367188 -13.05078125 9.87109375 C-13 12 -13 12 -14 14 C-10.04 14 -6.08 14 -2 14 C-2 13.01 -2 12.02 -2 11 C-4.64 11 -7.28 11 -10 11 C-10 10.01 -10 9.02 -10 8 C-7.36 8 -4.72 8 -2 8 C-2 7.01 -2 6.02 -2 5 C-4.31 5 -6.62 5 -9 5 C-9 4.01 -9 3.02 -9 2 C-6.03 2 -3.06 2 0 2 C0 1.34 0 0.68 0 0 Z " fill="#05111C" transform="translate(95,92)"/>
<path d="M0 0 C0 6.6 0 13.2 0 20 C-1.65 20.33 -3.3 20.66 -5 21 C-5 17.04 -5 13.08 -5 9 C-5.96421875 9.52851562 -6.9284375 10.05703125 -7.921875 10.6015625 C-9.19747353 11.27687937 -10.47354004 11.9513128 -11.75 12.625 C-12.38421875 12.975625 -13.0184375 13.32625 -13.671875 13.6875 C-15.546875 14.6640625 -15.546875 14.6640625 -19 16 C-21.453125 15.2109375 -21.453125 15.2109375 -23 14 C-19.07497696 9.6585698 -14.93341513 6.97272171 -9.8125 4.1875 C-9.08869141 3.78080078 -8.36488281 3.37410156 -7.61914062 2.95507812 C-2.28013393 0 -2.28013393 0 0 0 Z " fill="#A6623D" transform="translate(94,34)"/>
<path d="M0 0 C1.33599921 0.32248257 2.66893378 0.65772583 4 1 C5.32 1 6.64 1 8 1 C10.359375 3.1875 10.359375 3.1875 12.75 6 C13.54921875 6.928125 14.3484375 7.85625 15.171875 8.8125 C15.77515625 9.534375 16.3784375 10.25625 17 11 C16.67 11.66 16.34 12.32 16 13 C13.69 10.69 11.38 8.38 9 6 C10.98 8.64 12.96 11.28 15 14 C13.54550599 15.0055761 12.08627557 16.00430435 10.625 17 C9.81289062 17.556875 9.00078125 18.11375 8.1640625 18.6875 C6 20 6 20 4 20 C4 15.71 4 11.42 4 7 C1.69 7 -0.62 7 -3 7 C-1.125 1.125 -1.125 1.125 0 0 Z " fill="#3C7397" transform="translate(67,52)"/>
<path d="M0 0 C1.32 0 2.64 0 4 0 C4 3.63 4 7.26 4 11 C8.60570426 9.58286023 12.81122786 8.25710206 16.9375 5.75 C18.4534375 4.88375 18.4534375 4.88375 20 4 C20.66 4.33 21.32 4.66 22 5 C21.63682871 7.605632 21.31692165 8.72999968 19.28173828 10.46386719 C18.55196777 10.90375977 17.82219727 11.34365234 17.0703125 11.796875 C16.27496094 12.28027344 15.47960937 12.76367188 14.66015625 13.26171875 C13.82355469 13.75285156 12.98695312 14.24398437 12.125 14.75 C11.29613281 15.25660156 10.46726562 15.76320313 9.61328125 16.28515625 C3.41519963 20 3.41519963 20 0 20 C0 13.4 0 6.8 0 0 Z " fill="#B96D3B" transform="translate(66,61)"/>
<path d="M0 0 C0.33 0 0.66 0 1 0 C0.67 4.62 0.34 9.24 0 14 C0.66 14 1.32 14 2 14 C2.33 10.7 2.66 7.4 3 4 C4.65 4 6.3 4 8 4 C8 3.34 8 2.68 8 2 C9.65 2 11.3 2 13 2 C12.01 2.495 12.01 2.495 11 3 C10.68391655 4.96207724 10.68391655 4.96207724 10.625 7.25 C10.31348409 10.45197504 9.93426546 12.12883969 8.4375 15.0625 C5.45883624 17.43015581 3.6494896 17.77674477 -0.09375 17.57421875 C-2 17 -2 17 -4.5 14 C-4.995 13.01 -5.49 12.02 -6 11 C-5.67 10.34 -5.34 9.68 -5 9 C-4.34 9.33 -3.68 9.66 -3 10 C-3.33 8.02 -3.66 6.04 -4 4 C-2.68 3.34 -1.36 2.68 0 2 C0 1.34 0 0.68 0 0 Z " fill="#DCB59C" transform="translate(51,89)"/>
<path d="M0 0 C-1.32 1.65 -2.64 3.3 -4 5 C-3.34 5.33 -2.68 5.66 -2 6 C-2.54269531 6.33773437 -3.08539063 6.67546875 -3.64453125 7.0234375 C-4.35996094 7.46945313 -5.07539062 7.91546875 -5.8125 8.375 C-6.52019531 8.81585938 -7.22789063 9.25671875 -7.95703125 9.7109375 C-9.65432039 10.78188476 -11.33014358 11.88676239 -13 13 C-10.36 13.33 -7.72 13.66 -5 14 C-5 14.33 -5 14.66 -5 15 C-11.435 15.495 -11.435 15.495 -18 16 C-18 15.34 -18 14.68 -18 14 C-19.65 14 -21.3 14 -23 14 C-23 14.66 -23 15.32 -23 16 C-24.65 16 -26.3 16 -28 16 C-28.33 19.3 -28.66 22.6 -29 26 C-29.66 26 -30.32 26 -31 26 C-30.85975781 23.52039864 -30.7130815 21.04147598 -30.5625 18.5625 C-30.52318359 17.85544922 -30.48386719 17.14839844 -30.44335938 16.41992188 C-30.11328125 11.11328125 -30.11328125 11.11328125 -29 10 C-21.81795511 9.7605985 -21.81795511 9.7605985 -18.4375 10.75 C-14.42527148 11.16151062 -12.26934437 9.26339225 -9 7 C-8.67 6.01 -8.34 5.02 -8 4 C-7.34 4 -6.68 4 -6 4 C-6.33 3.01 -6.66 2.02 -7 1 C-3.375 -1.125 -3.375 -1.125 0 0 Z " fill="#808E92" transform="translate(82,77)"/>
<path d="M0 0 C0 4.29 0 8.58 0 13 C-0.33 13 -0.66 13 -1 13 C-1 9.37 -1 5.74 -1 2 C-2.32 2 -3.64 2 -5 2 C-5 8.6 -5 15.2 -5 22 C0.15333423 19.42333289 4.9904686 16.91993741 9.875 13.9375 C10.98617187 13.26589844 12.09734375 12.59429687 13.2421875 11.90234375 C16.18492104 10.12338743 16.18492104 10.12338743 18 7 C18 8.32 18 9.64 18 11 C13.84877704 15.14266374 8.36924394 17.84627816 3.3125 20.75 C2.44560547 21.25660156 1.57871094 21.76320313 0.68554688 22.28515625 C-0.14267578 22.76339844 -0.97089844 23.24164063 -1.82421875 23.734375 C-2.57791748 24.16975586 -3.33161621 24.60513672 -4.1081543 25.05371094 C-6 26 -6 26 -8 26 C-8.11627503 22.41694008 -8.1872736 18.83436583 -8.25 15.25 C-8.28351562 14.23421875 -8.31703125 13.2184375 -8.3515625 12.171875 C-8.45002176 4.68897136 -8.45002176 4.68897136 -6.234375 1.296875 C-4 0 -4 0 0 0 Z " fill="#43332C" transform="translate(71,59)"/>
<path d="M0 0 C1.21236328 0.02707031 1.21236328 0.02707031 2.44921875 0.0546875 C3.37154297 0.08949219 3.37154297 0.08949219 4.3125 0.125 C3.9825 1.115 3.6525 2.105 3.3125 3.125 C1.0025 3.125 -1.3075 3.125 -3.6875 3.125 C-3.6875 4.115 -3.6875 5.105 -3.6875 6.125 C-1.7075 6.785 0.2725 7.445 2.3125 8.125 C2.6425 9.775 2.9725 11.425 3.3125 13.125 C0.10869983 15.26086678 -0.70689967 15.35632175 -4.375 15.25 C-5.18324219 15.23195313 -5.99148437 15.21390625 -6.82421875 15.1953125 C-7.74654297 15.16050781 -7.74654297 15.16050781 -8.6875 15.125 C-8.6875 6.39772727 -8.6875 6.39772727 -7.6875 2.125 C-4.48369983 -0.01086678 -3.66810033 -0.10632175 0 0 Z " fill="#C27A4E" transform="translate(40.6875,90.875)"/>
<path d="M0 0 C1.32 0 2.64 0 4 0 C5.0958717 3.32394234 5.1859978 4.61468079 3.63671875 7.82421875 C2.99347656 8.76910156 2.35023437 9.71398437 1.6875 10.6875 C0.73423828 12.11642578 0.73423828 12.11642578 -0.23828125 13.57421875 C-2 16 -2 16 -4 18 C-9.33333333 18.33333333 -9.33333333 18.33333333 -12 17 C-12.59355614 14.35139573 -12.74209269 11.70802678 -13 9 C-11 12 -11 12 -11 14 C-9.68 14 -8.36 14 -7 14 C-6.773125 13.360625 -6.54625 12.72125 -6.3125 12.0625 C-4.51434174 7.86679739 -2.26095979 3.96099444 0 0 Z " fill="#050C16" transform="translate(111,92)"/>
<path d="M0 0 C0.66 0.99 1.32 1.98 2 3 C0.35 4.65 -1.3 6.3 -3 8 C-2.67 8.99 -2.34 9.98 -2 11 C-2.99 11.495 -2.99 11.495 -4 12 C-5.04808041 13.97522846 -6.0520411 15.97481509 -7 18 C-6.01 18.33 -5.02 18.66 -4 19 C-4.4844458 19.39421143 -4.9688916 19.78842285 -5.46801758 20.19458008 C-7.44186491 22.52073163 -7.42012916 23.8642623 -7.51171875 26.88671875 C-7.54716797 27.82451172 -7.58261719 28.76230469 -7.61914062 29.72851562 C-7.64169922 30.70498047 -7.66425781 31.68144531 -7.6875 32.6875 C-7.72166016 33.67556641 -7.75582031 34.66363281 -7.79101562 35.68164062 C-7.87350538 38.12098053 -7.94265068 40.55996063 -8 43 C-8.33 43 -8.66 43 -9 43 C-9.22320235 37.84078257 -9.38610225 32.68439491 -9.49438477 27.52148438 C-9.53953126 25.76740561 -9.60086921 24.01366349 -9.67895508 22.26074219 C-10.3145957 7.62023528 -10.3145957 7.62023528 -6.95654297 3.48144531 C-4.66777662 1.95560108 -2.60412516 0.86706309 0 0 Z " fill="#135D84" transform="translate(71,41)"/>
<path d="M0 0 C0.33 4.29 0.66 8.58 1 13 C1.99 13.33 2.98 13.66 4 14 C0.9375 15 0.9375 15 -3 15 C-5.88773479 12.74241607 -8.17940963 10.18603315 -10 7 C-8.4558095 2.36742851 -4.87763981 0 0 0 Z " fill="#98B4D3" transform="translate(86,46)"/>
<path d="M0 0 C0.33 0 0.66 0 1 0 C1.33 12.21 1.66 24.42 2 37 C6.43417795 35.52194068 9.18635095 34.33056331 13 32 C13.66 32 14.32 32 15 32 C15 32.66 15 33.32 15 34 C14.34 34 13.68 34 13 34 C12.979375 34.5775 12.95875 35.155 12.9375 35.75 C11.69809767 38.72456559 9.68964794 39.75328474 6.984375 41.36328125 C5 42 5 42 0 41 C0 27.47 0 13.94 0 0 Z " fill="#A1B8CB" transform="translate(61,47)"/>
<path d="M0 0 C1.98 0 3.96 0 6 0 C5.01 0.33 4.02 0.66 3 1 C2.44246661 2.81024268 2.44246661 2.81024268 2 5 C1.12295872 6.78106845 0.18032297 8.5307825 -0.8125 10.25 C-1.31394531 11.14203125 -1.81539063 12.0340625 -2.33203125 12.953125 C-3.15767578 13.96632813 -3.15767578 13.96632813 -4 15 C-5.32 15 -6.64 15 -8 15 C-8.33 12.69 -8.66 10.38 -9 8 C-7.68 8.33 -6.36 8.66 -5 9 C-5 7.02 -5 5.04 -5 3 C-4.67 3.99 -4.34 4.98 -4 6 C-3.34 6 -2.68 6 -2 6 C-1.34 4.02 -0.68 2.04 0 0 Z " fill="#2E627D" transform="translate(108,91)"/>
<path d="M0 0 C0.33 0 0.66 0 1 0 C1 13.2 1 26.4 1 40 C0.67 40 0.34 40 0 40 C-0.33 34.06 -0.66 28.12 -1 22 C-1.66 23.32 -2.32 24.64 -3 26 C-3.66 26 -4.32 26 -5 26 C-5 22.04 -5 18.08 -5 14 C-4.01 14.495 -4.01 14.495 -3 15 C-2.34 14.67 -1.68 14.34 -1 14 C-0.52998967 10.72444392 -0.52998967 10.72444392 -0.375 6.9375 C-0.26285156 5.00197266 -0.26285156 5.00197266 -0.1484375 3.02734375 C-0.09945312 2.02832031 -0.05046875 1.02929688 0 0 Z " fill="#7F8F9B" transform="translate(100,30)"/>
<path d="M0 0 C2.05078125 0.03255208 4.1015625 0.06510417 6.15234375 0.09765625 C6.48234375 1.41765625 6.81234375 2.73765625 7.15234375 4.09765625 C6.16234375 4.09765625 5.17234375 4.09765625 4.15234375 4.09765625 C4.15234375 4.75765625 4.15234375 5.41765625 4.15234375 6.09765625 C2.50234375 6.09765625 0.85234375 6.09765625 -0.84765625 6.09765625 C-1.17765625 9.39765625 -1.50765625 12.69765625 -1.84765625 16.09765625 C-2.50765625 16.09765625 -3.16765625 16.09765625 -3.84765625 16.09765625 C-3.70741406 13.61805489 -3.56073775 11.13913223 -3.41015625 8.66015625 C-3.37083984 7.95310547 -3.33152344 7.24605469 -3.29101562 6.51757812 C-2.895134 0.15301977 -2.895134 0.15301977 0 0 Z " fill="#270E07" transform="translate(54.84765625,86.90234375)"/>
<path d="M0 0 C1.17539996 0.92652701 2.34010577 1.86663387 3.5 2.8125 C4.1496875 3.33457031 4.799375 3.85664062 5.46875 4.39453125 C7 6 7 6 7 9 C0.25 13 0.25 13 -2 13 C-2 9.7 -2 6.4 -2 3 C-1.34 3 -0.68 3 0 3 C0 2.01 0 1.02 0 0 Z " fill="#A3BFE3" transform="translate(74,58)"/>
<path d="M0 0 C0.33 0.66 0.66 1.32 1 2 C-1.74272401 3.5135972 -4.49525633 5.00840709 -7.25 6.5 C-8.02730469 6.92925781 -8.80460937 7.35851563 -9.60546875 7.80078125 C-10.35957031 8.20683594 -11.11367187 8.61289062 -11.890625 9.03125 C-12.58188477 9.40830078 -13.27314453 9.78535156 -13.98535156 10.17382812 C-16 11 -16 11 -20 11 C-18.49630865 6.48892596 -15.14872733 5.46829837 -11.125 3.25 C-10.39152344 2.82589844 -9.65804687 2.40179688 -8.90234375 1.96484375 C-8.19464844 1.56910156 -7.48695312 1.17335937 -6.7578125 0.765625 C-6.1095752 0.40243164 -5.46133789 0.03923828 -4.79345703 -0.33496094 C-3 -1 -3 -1 0 0 Z " fill="#658CA6" transform="translate(93,31)"/>
<path d="M0 0 C4.58716587 4.44381694 8.78762713 9.20228499 13 14 C12.01 14.33 11.02 14.66 10 15 C7.39563511 16.56177473 4.83818886 18.1882908 2.27734375 19.8203125 C1.15005859 20.40425781 1.15005859 20.40425781 0 21 C-0.66 20.67 -1.32 20.34 -2 20 C0.64 18.35 3.28 16.7 6 15 C4.02 12.69 2.04 10.38 0 8 C0.33 7.34 0.66 6.68 1 6 C3.31 8.31 5.62 10.62 8 13 C7.071875 11.7625 6.14375 10.525 5.1875 9.25 C3.125 6.5 1.0625 3.75 -1 1 C-0.67 0.67 -0.34 0.34 0 0 Z " fill="#4C3D42" transform="translate(75,51)"/>
<path d="M0 0 C1.65 0 3.3 0 5 0 C4.01 0.495 4.01 0.495 3 1 C2.53348793 3.12576782 2.53348793 3.12576782 2.375 5.5625 C2.30023438 6.38878906 2.22546875 7.21507813 2.1484375 8.06640625 C2.09945312 8.70449219 2.05046875 9.34257813 2 10 C1.34 9.34 0.68 8.68 0 8 C-0.99 8.99 -1.98 9.98 -3 11 C-3 9.35 -3 7.7 -3 6 C-3.66 7.98 -4.32 9.96 -5 12 C-5.33 12 -5.66 12 -6 12 C-5.67 8.7 -5.34 5.4 -5 2 C-3.35 2 -1.7 2 0 2 C0 1.34 0 0.68 0 0 Z " fill="#7D6A5D" transform="translate(59,91)"/>
<path d="M0 0 C0.66 0 1.32 0 2 0 C2 3.3 2 6.6 2 10 C4.31 10.33 6.62 10.66 9 11 C9 11.66 9 12.32 9 13 C8.01 13 7.02 13 6 13 C6 13.66 6 14.32 6 15 C5.01 15.33 4.02 15.66 3 16 C2.34 15.67 1.68 15.34 1 15 C0.67 15.66 0.34 16.32 0 17 C0 11.39 0 5.78 0 0 Z " fill="#BE6428" transform="translate(67,62)"/>
<path d="M0 0 C0.66 0 1.32 0 2 0 C2 1.65 2 3.3 2 5 C2.99 5 3.98 5 5 5 C5.33 3.35 5.66 1.7 6 0 C7.32 0 8.64 0 10 0 C9.25 4.75 9.25 4.75 7 7 C7 7.33 7 7.66 7 8 C4.36 8 1.72 8 -1 8 C-1.125 2.25 -1.125 2.25 0 0 Z " fill="#4E8299" transform="translate(65,98)"/>
<path d="M0 0 C2.97 0 5.94 0 9 0 C5 2 5 2 2 2 C2 2.99 2 3.98 2 5 C4.64 5 7.28 5 10 5 C10 5.99 10 6.98 10 8 C6.04 8 2.08 8 -2 8 C-1.34 5.36 -0.68 2.72 0 0 Z " fill="#457D9A" transform="translate(83,98)"/>
<path d="M0 0 C0.66 0 1.32 0 2 0 C1.39301257 4.12751449 -0.03810791 7.3321148 -2 11 C-5.36720387 9.60667426 -6.9859524 8.0210714 -9 5 C-7.68 4.67 -6.36 4.34 -5 4 C-5.33 3.34 -5.66 2.68 -6 2 C-4.02 2 -2.04 2 0 2 C0 1.34 0 0.68 0 0 Z " fill="#5387A9" transform="translate(93,56)"/>
<path d="M0 0 C0.99 0 1.98 0 3 0 C3.33 2.31 3.66 4.62 4 7 C0.44706507 8.14947895 -0.79976669 8.0868937 -4.3125 6.5625 C-5.199375 6.046875 -6.08625 5.53125 -7 5 C-7 4.01 -7 3.02 -7 2 C-4.69 2 -2.38 2 0 2 C0 1.34 0 0.68 0 0 Z " fill="#644431" transform="translate(44,92)"/>
<path d="M0 0 C0.66 0 1.32 0 2 0 C1.39174965 4.34464536 0.73832608 8.67551867 0 13 C-0.66 13 -1.32 13 -2 13 C-1.67 13.99 -1.34 14.98 -1 16 C-5.32734391 18.22923777 -8.28400182 17.92470553 -13 17 C-13 16.67 -13 16.34 -13 16 C-10.03 15.34 -7.06 14.68 -4 14 C-2.68 9.38 -1.36 4.76 0 0 Z " fill="#2E3F4F" transform="translate(64,93)"/>
<path d="M0 0 C0.66 0.66 1.32 1.32 2 2 C1.62919293 5.49618092 -0.13208654 8.16747673 -1.9375 11.125 C-2.46214844 11.99382812 -2.98679687 12.86265625 -3.52734375 13.7578125 C-5 16 -5 16 -7 18 C-10.125 18.125 -10.125 18.125 -13 18 C-12.13955078 17.70416016 -12.13955078 17.70416016 -11.26171875 17.40234375 C-8.11075083 15.4486348 -6.63424468 12.68988534 -4.8125 9.5625 C-4.45736328 8.97662109 -4.10222656 8.39074219 -3.73632812 7.78710938 C-2.19806803 5.21555883 -0.95050481 2.85151442 0 0 Z " fill="#8C8B8C" transform="translate(114,92)"/>
<path d="M0 0 C0.33 0 0.66 0 1 0 C0.67 4.62 0.34 9.24 0 14 C-1.32 14.33 -2.64 14.66 -4 15 C-4.66 13.02 -5.32 11.04 -6 9 C-5.01 9.33 -4.02 9.66 -3 10 C-3.33 8.02 -3.66 6.04 -4 4 C-2.68 3.34 -1.36 2.68 0 2 C0 1.34 0 0.68 0 0 Z " fill="#C57E4D" transform="translate(51,89)"/>
<path d="M0 0 C0.66 0.33 1.32 0.66 2 1 C0.90300781 1.60328125 -0.19398437 2.2065625 -1.32421875 2.828125 C-2.77878128 3.6351726 -4.23320083 4.44247792 -5.6875 5.25 C-6.40873047 5.64574219 -7.12996094 6.04148437 -7.87304688 6.44921875 C-15.92648367 10.73698308 -15.92648367 10.73698308 -21 18 C-21.66 16.68 -22.32 15.36 -23 14 C-22.195625 13.21625 -21.39125 12.4325 -20.5625 11.625 C-18.01309583 9.28017144 -18.01309583 9.28017144 -17 7 C-15.66195312 6.78730469 -15.66195312 6.78730469 -14.296875 6.5703125 C-10.67606349 5.94396359 -8.39396794 4.74227378 -5.25 2.875 C-2.390625 1.1796875 -2.390625 1.1796875 0 0 Z " fill="#33353C" transform="translate(90,34)"/>
<path d="M0 0 C0.33 0.66 0.66 1.32 1 2 C-0.98 2.66 -2.96 3.32 -5 4 C-5 4.66 -5 5.32 -5 6 C-6.32 6.33 -7.64 6.66 -9 7 C-9 7.66 -9 8.32 -9 9 C-10.98 9.33 -12.96 9.66 -15 10 C-15 10.66 -15 11.32 -15 12 C-16.32 12 -17.64 12 -19 12 C-19 11.34 -19 10.68 -19 10 C-12.76352839 6.45997384 -6.43785331 3.15844578 0 0 Z " fill="#83939C" transform="translate(99,70)"/>
<path d="M0 0 C0.33 0 0.66 0 1 0 C1 6.6 1 13.2 1 20 C1.66 20 2.32 20 3 20 C3 20.66 3 21.32 3 22 C1.68 22.33 0.36 22.66 -1 23 C-1.02887512 19.35418313 -1.04675585 15.70839537 -1.0625 12.0625 C-1.07087891 11.02158203 -1.07925781 9.98066406 -1.08789062 8.90820312 C-1.09272461 7.42416992 -1.09272461 7.42416992 -1.09765625 5.91015625 C-1.10289307 4.99371338 -1.10812988 4.07727051 -1.11352539 3.13305664 C-1 1 -1 1 0 0 Z " fill="#201D21" transform="translate(64,62)"/>
<path d="M0 0 C0 0.66 0 1.32 0 2 C-3.34939881 4.02558881 -5.86962551 4.21738987 -9.75 4.125 C-10.73484375 4.10695313 -11.7196875 4.08890625 -12.734375 4.0703125 C-13.85585937 4.03550781 -13.85585937 4.03550781 -15 4 C-15.33 3.01 -15.66 2.02 -16 1 C-14.08351538 0.83125293 -12.16680367 0.66508357 -10.25 0.5 C-9.18265625 0.4071875 -8.1153125 0.314375 -7.015625 0.21875 C-4.6820782 0.04947717 -2.33967818 0 0 0 Z " fill="#080D16" transform="translate(78,105)"/>
<path d="M0 0 C1.65 0 3.3 0 5 0 C5.66 2.31 6.32 4.62 7 7 C6.34 7.66 5.68 8.32 5 9 C4.01 8.34 3.02 7.68 2 7 C1.67 7.99 1.34 8.98 1 10 C-0.60725635 6.78548731 -0.05748185 3.56387464 0 0 Z " fill="#17415C" transform="translate(97,92)"/>
<path d="M0 0 C0 0.66 0 1.32 0 2 C-0.66 2 -1.32 2 -2 2 C-2.08121094 2.61359375 -2.16242188 3.2271875 -2.24609375 3.859375 C-3 6 -3 6 -4.84765625 7.265625 C-5.57855469 7.59046875 -6.30945313 7.9153125 -7.0625 8.25 C-7.79597656 8.58515625 -8.52945313 8.9203125 -9.28515625 9.265625 C-10.13400391 9.62914063 -10.13400391 9.62914063 -11 10 C-11.66 9.34 -12.32 8.68 -13 8 C-5 0 -5 0 0 0 Z " fill="#7DA2BF" transform="translate(76,79)"/>
<path d="M0 0 C0.66 0.33 1.32 0.66 2 1 C2.44921875 2.99609375 2.44921875 2.99609375 2.6875 5.4375 C2.77386719 6.24058594 2.86023438 7.04367188 2.94921875 7.87109375 C3 10 3 10 2 12 C3.98 12 5.96 12 8 12 C8 12.33 8 12.66 8 13 C5.69 13.33 3.38 13.66 1 14 C1 13.34 1 12.68 1 12 C-0.32 11.34 -1.64 10.68 -3 10 C-2.34 9.34 -1.68 8.68 -1 8 C-0.54188325 6.02764667 -0.54188325 6.02764667 -0.375 3.875 C-0.25125 2.59625 -0.1275 1.3175 0 0 Z " fill="#0A1A27" transform="translate(79,94)"/>
<path d="M0 0 C0.99 0 1.98 0 3 0 C3 3.63 3 7.26 3 11 C1 10 1 10 0 7 C-1.65 6.67 -3.3 6.34 -5 6 C-4.67 5.01 -4.34 4.02 -4 3 C-1.9375 2.3125 -1.9375 2.3125 0 2 C0 1.34 0 0.68 0 0 Z " fill="#CD6D25" transform="translate(90,36)"/>
<path d="M0 0 C0.33 0 0.66 0 1 0 C1.43344482 5.20133779 1.43344482 5.20133779 1 8 C-1.68139167 10.90484097 -4.07697771 12.41881151 -8 13 C-7.44889998 9.14229986 -5.73689031 7.65639353 -3 5 C-1.98343919 3.34338239 -0.97934924 1.67888441 0 0 Z " fill="#0E5F88" transform="translate(98,61)"/>
<path d="M0 0 C2.875 -0.125 2.875 -0.125 6 0 C6.66 0.66 7.32 1.32 8 2 C7.67 2.99 7.34 3.98 7 5 C5.68 4.67 4.36 4.34 3 4 C2.67 5.65 2.34 7.3 2 9 C1.34 9 0.68 9 0 9 C0 6.03 0 3.06 0 0 Z " fill="#0E1B27" transform="translate(68,94)"/>
<path d="M0 0 C0.66 0 1.32 0 2 0 C2 1.98 2 3.96 2 6 C2.66 6 3.32 6 4 6 C4 6.66 4 7.32 4 8 C4.99 8.33 5.98 8.66 7 9 C4.69 9.33 2.38 9.66 0 10 C-0.99 8.35 -1.98 6.7 -3 5 C-2.34 4.34 -1.68 3.68 -1 3 C-0.67 2.01 -0.34 1.02 0 0 Z " fill="#A8C2E2" transform="translate(83,51)"/>
<path d="M0 0 C0.33 0.99 0.66 1.98 1 3 C-2.59462331 5.25998595 -5.56595675 5.20868087 -9.75 5.125 C-10.92046875 5.10695313 -12.0909375 5.08890625 -13.296875 5.0703125 C-14.63492188 5.03550781 -14.63492188 5.03550781 -16 5 C-16 4.34 -16 3.68 -16 3 C-15.32453125 2.95101562 -14.6490625 2.90203125 -13.953125 2.8515625 C-13.06109375 2.77679688 -12.1690625 2.70203125 -11.25 2.625 C-10.36828125 2.55539063 -9.4865625 2.48578125 -8.578125 2.4140625 C-5.4633461 1.91381013 -3.09275786 0 0 0 Z " fill="#908F91" transform="translate(80,106)"/>
<path d="M0 0 C0.66 0 1.32 0 2 0 C2 1.65 2 3.3 2 5 C-2.62 5 -7.24 5 -12 5 C-12 4.34 -12 3.68 -12 3 C-6.06 2.505 -6.06 2.505 0 2 C0 1.34 0 0.68 0 0 Z " fill="#0B0E11" transform="translate(93,104)"/>
<path d="M0 0 C0.33 0 0.66 0 1 0 C0.55643705 6.20988129 -0.91532502 10.60540561 -4 16 C-4.66 16 -5.32 16 -6 16 C-6.33 17.32 -6.66 18.64 -7 20 C-7.33 19.01 -7.66 18.02 -8 17 C-7.04504326 15.30712215 -6.0409066 13.64142963 -5 12 C-4.30420546 9.80869466 -4.30420546 9.80869466 -4 8 C-3.34 8 -2.68 8 -2 8 C-1.855625 7.4225 -1.71125 6.845 -1.5625 6.25 C-1.04166667 4.16666667 -0.52083333 2.08333333 0 0 Z " fill="#4081AD" transform="translate(99,48)"/>
<path d="M0 0 C0.66 0.33 1.32 0.66 2 1 C1 4 1 4 -2 6 C-4.41015625 6.30078125 -4.41015625 6.30078125 -7.0625 6.3125 C-7.94035156 6.32925781 -8.81820312 6.34601563 -9.72265625 6.36328125 C-10.84994141 6.18345703 -10.84994141 6.18345703 -12 6 C-12.66 5.01 -13.32 4.02 -14 3 C-12.98679688 3.05220703 -12.98679688 3.05220703 -11.953125 3.10546875 C-10.61507812 3.14607422 -10.61507812 3.14607422 -9.25 3.1875 C-8.36828125 3.22230469 -7.4865625 3.25710937 -6.578125 3.29296875 C-3.55328417 2.94923684 -2.24416398 1.99772541 0 0 Z " fill="#908D8B" transform="translate(46,105)"/>
<path d="M0 0 C1.32 0.99 2.64 1.98 4 3 C3.67 3.99 3.34 4.98 3 6 C2.34 6 1.68 6 1 6 C1.33 9.63 1.66 13.26 2 17 C1.34 17 0.68 17 0 17 C0 12.71 0 8.42 0 4 C-0.99 4 -1.98 4 -3 4 C-2.67 3.01 -2.34 2.02 -2 1 C-1.34 0.67 -0.68 0.34 0 0 Z " fill="#7793AD" transform="translate(71,55)"/>
<path d="M0 0 C0 0.99 0 1.98 0 3 C0.66 3 1.32 3 2 3 C2.33 4.32 2.66 5.64 3 7 C2.34 6.67 1.68 6.34 1 6 C-0.70363822 5.77377919 -2.41328701 5.59111527 -4.125 5.4375 C-5.03507812 5.35371094 -5.94515625 5.26992187 -6.8828125 5.18359375 C-7.58148438 5.12300781 -8.28015625 5.06242187 -9 5 C-2.87096774 0 -2.87096774 0 0 0 Z " fill="#E5EDED" transform="translate(76,86)"/>
<path d="M0 0 C0.99 0 1.98 0 3 0 C3.02705729 1.77074917 3.04642195 3.54161711 3.0625 5.3125 C3.07410156 6.29863281 3.08570312 7.28476562 3.09765625 8.30078125 C3 11 3 11 2 14 C3.32 13.67 4.64 13.34 6 13 C6 13.66 6 14.32 6 15 C4.35 15 2.7 15 1 15 C1 10.71 1 6.42 1 2 C0.34 1.67 -0.32 1.34 -1 1 C-0.67 0.67 -0.34 0.34 0 0 Z " fill="#271A18" transform="translate(86,43)"/>
<path d="M0 0 C1.32 0.33 2.64 0.66 4 1 C4.28571429 8.42857143 4.28571429 8.42857143 2 12 C1.34 12 0.68 12 0 12 C0 8.04 0 4.08 0 0 Z " fill="#7299B9" transform="translate(95,44)"/>
<path d="M0 0 C1.32 0.66 2.64 1.32 4 2 C3.5155542 2.39421143 3.0311084 2.78842285 2.53198242 3.19458008 C0.55813509 5.52073163 0.57987084 6.8642623 0.48828125 9.88671875 C0.45283203 10.82451172 0.41738281 11.76230469 0.38085938 12.72851562 C0.35830078 13.70498047 0.33574219 14.68144531 0.3125 15.6875 C0.27833984 16.67556641 0.24417969 17.66363281 0.20898438 18.68164062 C0.12649462 21.12098053 0.05734932 23.55996063 0 26 C-0.33 26 -0.66 26 -1 26 C-1.02892857 22.04168191 -1.04677427 18.08339083 -1.0625 14.125 C-1.07087891 12.99707031 -1.07925781 11.86914062 -1.08789062 10.70703125 C-1.09111328 9.63066406 -1.09433594 8.55429688 -1.09765625 7.4453125 C-1.10289307 6.45031738 -1.10812988 5.45532227 -1.11352539 4.43017578 C-1 2 -1 2 0 0 Z " fill="#50697E" transform="translate(63,58)"/>
<path d="M0 0 C-0.33 0.66 -0.66 1.32 -1 2 C1.64 2.33 4.28 2.66 7 3 C7 3.33 7 3.66 7 4 C0.565 4.495 0.565 4.495 -6 5 C-6 4.34 -6 3.68 -6 3 C-6.66 3 -7.32 3 -8 3 C-8 2.34 -8 1.68 -8 1 C-3.375 -1.125 -3.375 -1.125 0 0 Z " fill="#7F93A4" transform="translate(70,88)"/>
<path d="M0 0 C0.99 0.33 1.98 0.66 3 1 C2.875 2.8125 2.875 2.8125 2 5 C-1.0625 6.75 -1.0625 6.75 -4 8 C-4 7.34 -4 6.68 -4 6 C-3.34 6 -2.68 6 -2 6 C-2 5.34 -2 4.68 -2 4 C-3.32 4.33 -4.64 4.66 -6 5 C-2.25 1.125 -2.25 1.125 0 0 Z " fill="#A35F47" transform="translate(85,65)"/>
<path d="M0 0 C-4.75 3 -4.75 3 -7 3 C-7 7.95 -7 12.9 -7 18 C-7.66 17.67 -8.32 17.34 -9 17 C-9.05398987 14.72942623 -9.09278742 12.45848712 -9.125 10.1875 C-9.14820313 8.92292969 -9.17140625 7.65835938 -9.1953125 6.35546875 C-9 3 -9 3 -7 0 C-4.02096037 -1.15317663 -3.13440869 -1.0448029 0 0 Z " fill="#E8F8FB" transform="translate(68,44)"/>
<path d="M0 0 C2.93453261 0.36681658 3.86437246 0.86437246 6 3 C0.25 6 0.25 6 -2 6 C-2 6.66 -2 7.32 -2 8 C-2.66 8 -3.32 8 -4 8 C-2.25 2.25 -2.25 2.25 0 0 Z " fill="#4C7C9C" transform="translate(82,74)"/>
<path d="M0 0 C3.66786393 1.50349377 5.68910393 3.63728792 8.25 6.625 C8.95640625 7.44226562 9.6628125 8.25953125 10.390625 9.1015625 C10.92171875 9.72804688 11.4528125 10.35453125 12 11 C11.67 11.66 11.34 12.32 11 13 C9.16052663 11.21427748 7.32842259 9.42197551 5.5 7.625 C4.71302734 6.86316406 4.71302734 6.86316406 3.91015625 6.0859375 C2.56846819 4.76167396 1.28004185 3.38394135 0 2 C0 1.34 0 0.68 0 0 Z " fill="#CDB3B4" transform="translate(72,52)"/>
<path d="M0 0 C0.99 0.33 1.98 0.66 3 1 C3 1.66 3 2.32 3 3 C3.99 2.67 4.98 2.34 6 2 C5.67 3.65 5.34 5.3 5 7 C3.68 7 2.36 7 1 7 C0.67 4.69 0.34 2.38 0 0 Z " fill="#709DB0" transform="translate(99,99)"/>
<path d="M0 0 C1.32 0 2.64 0 4 0 C4 0.66 4 1.32 4 2 C6.31 2 8.62 2 11 2 C11 2.99 11 3.98 11 5 C8.46653542 5.07037402 6.2762137 5.07102638 3.8125 4.4375 C1.91567768 3.77357897 1.91567768 3.77357897 0 5 C-0.5625 3.0625 -0.5625 3.0625 -1 1 C-0.67 0.67 -0.34 0.34 0 0 Z " fill="#20536D" transform="translate(82,95)"/>
<path d="M0 0 C1.65 0 3.3 0 5 0 C4.01 0.495 4.01 0.495 3 1 C2.53348793 3.12576782 2.53348793 3.12576782 2.375 5.5625 C2.30023438 6.38878906 2.22546875 7.21507813 2.1484375 8.06640625 C2.09945312 8.70449219 2.05046875 9.34257813 2 10 C0.48046875 8.73046875 0.48046875 8.73046875 -1 7 C-0.6875 3.3125 -0.6875 3.3125 0 0 Z " fill="#C17444" transform="translate(59,91)"/>
<path d="M0 0 C2.64 0 5.28 0 8 0 C8.33 1.32 8.66 2.64 9 4 C6.03 3.67 3.06 3.34 0 3 C0 2.01 0 1.02 0 0 Z " fill="#09162C" transform="translate(85,100)"/>
<path d="M0 0 C0 0.99 0 1.98 0 3 C-0.99 3 -1.98 3 -3 3 C-3 3.66 -3 4.32 -3 5 C-4.65 5 -6.3 5 -8 5 C-8.33 5.99 -8.66 6.98 -9 8 C-9 6.35 -9 4.7 -9 3 C-2.25 0 -2.25 0 0 0 Z " fill="#1D0F0B" transform="translate(62,88)"/>
<path d="M0 0 C1.32 0.33 2.64 0.66 4 1 C0.98112756 4.48331435 -1.56909529 5.79157144 -6 7 C-5.67 5.68 -5.34 4.36 -5 3 C-5 3.66 -5 4.32 -5 5 C-4.34 5 -3.68 5 -3 5 C-3 4.34 -3 3.68 -3 3 C-2.34 3 -1.68 3 -1 3 C-0.67 2.01 -0.34 1.02 0 0 Z " fill="#ACBFD8" transform="translate(78,64)"/>
<path d="M0 0 C0.99 0 1.98 0 3 0 C2.49701212 4.40114397 0.91227269 6.71195019 -2 10 C-2.17942163 6.05272412 -2.09350689 3.4019487 0 0 Z " fill="#090E13" transform="translate(111,92)"/>
<path d="M0 0 C2.97 0 5.94 0 9 0 C8.67 0.99 8.34 1.98 8 3 C5.03 3 2.06 3 -1 3 C-0.67 2.01 -0.34 1.02 0 0 Z " fill="#D3844D" transform="translate(36,91)"/>
<path d="M0 0 C2.31 0 4.62 0 7 0 C7 0.66 7 1.32 7 2 C6.01 2 5.02 2 4 2 C4 2.66 4 3.32 4 4 C3.01 4.33 2.02 4.66 1 5 C0.34 4.67 -0.32 4.34 -1 4 C-0.67 2.68 -0.34 1.36 0 0 Z " fill="#D57323" transform="translate(69,73)"/>
<path d="M0 0 C0 0.66 0 1.32 0 2 C-3.36683915 4.43160605 -4.73350364 5 -9 5 C-8 2 -8 2 -6.1875 0.8125 C-4 0 -4 0 0 0 Z " fill="#427897" transform="translate(82,37)"/>
<path d="M0 0 C2.97 0 5.94 0 9 0 C9 0.99 9 1.98 9 3 C6.03 3 3.06 3 0 3 C0 2.01 0 1.02 0 0 Z " fill="#210802" transform="translate(37,94)"/>
<path d="M0 0 C-0.33 1.32 -0.66 2.64 -1 4 C-2.65 3.67 -4.3 3.34 -6 3 C-6.33 2.01 -6.66 1.02 -7 0 C-4.3333581 -1.33332095 -2.83319697 -0.67102033 0 0 Z " fill="#8FB1D3" transform="translate(98,29)"/>
<path d="M0 0 C0.66 0.99 1.32 1.98 2 3 C-2.32734391 5.22923777 -5.28400182 4.92470553 -10 4 C-10 3.67 -10 3.34 -10 3 C-9.04287109 2.80083984 -9.04287109 2.80083984 -8.06640625 2.59765625 C-7.24011719 2.42105469 -6.41382813 2.24445313 -5.5625 2.0625 C-4.73878906 1.88847656 -3.91507813 1.71445313 -3.06640625 1.53515625 C-1.02338796 1.19247006 -1.02338796 1.19247006 0 0 Z " fill="#87888A" transform="translate(61,106)"/>
<path d="M0 0 C0.33 0.66 0.66 1.32 1 2 C0.34 2 -0.32 2 -1 2 C-1 2.66 -1 3.32 -1 4 C0.32 4.33 1.64 4.66 3 5 C1.02 5.66 -0.96 6.32 -3 7 C-3.66 6.01 -4.32 5.02 -5 4 C-3.35 2.68 -1.7 1.36 0 0 Z " fill="#8B5447" transform="translate(76,43)"/>
<path d="M0 0 C0.6875 1.75 0.6875 1.75 1 4 C-0.0625 6.25 -0.0625 6.25 -2 8 C-5.1875 8.25 -5.1875 8.25 -8 8 C-7.13375 7.690625 -7.13375 7.690625 -6.25 7.375 C-3.18589456 5.50249112 -1.84460032 3.03041481 0 0 Z " fill="#828383" transform="translate(109,102)"/>
<path d="M0 0 C-3.44615385 4.8 -3.44615385 4.8 -6.25 5.8125 C-7.11625 5.9053125 -7.11625 5.9053125 -8 6 C-8 5.34 -8 4.68 -8 4 C-7.34 4 -6.68 4 -6 4 C-6.33 3.01 -6.66 2.02 -7 1 C-3.375 -1.125 -3.375 -1.125 0 0 Z " fill="#6393B1" transform="translate(82,77)"/>
<path d="M0 0 C-1.75 2.0625 -1.75 2.0625 -4 4 C-6.1875 3.875 -6.1875 3.875 -8 3 C-8.33 2.34 -8.66 1.68 -9 1 C-3.375 -1.125 -3.375 -1.125 0 0 Z " fill="#6E9EC0" transform="translate(93,60)"/>
<path d="M0 0 C0.66 0.33 1.32 0.66 2 1 C2.625 3.5625 2.625 3.5625 3 6 C1.68 6.33 0.36 6.66 -1 7 C-1.66 5.02 -2.32 3.04 -3 1 C-2.01 1.33 -1.02 1.66 0 2 C0 1.34 0 0.68 0 0 Z " fill="#CD9671" transform="translate(48,97)"/>
<path d="M0 0 C1.32 0 2.64 0 4 0 C3.67 1.65 3.34 3.3 3 5 C1.68 5 0.36 5 -1 5 C-0.67 3.35 -0.34 1.7 0 0 Z " fill="#A8B4BC" transform="translate(71,98)"/>
<path d="M0 0 C0.33 0.99 0.66 1.98 1 3 C1.99 3.33 2.98 3.66 4 4 C3.67 5.65 3.34 7.3 3 9 C1.68 8.34 0.36 7.68 -1 7 C-0.67 6.34 -0.34 5.68 0 5 C0.0396713 3.33380554 0.04384447 1.66608987 0 0 Z " fill="#476F85" transform="translate(103,94)"/>
<path d="M0 0 C2.64 0 5.28 0 8 0 C7.01 1.485 7.01 1.485 6 3 C2.875 3.1875 2.875 3.1875 0 3 C0 2.01 0 1.02 0 0 Z " fill="#916649" transform="translate(53,87)"/>
<path d="M0 0 C0.66 0.33 1.32 0.66 2 1 C2 5 2 5 1 8 C0.01 8.33 -0.98 8.66 -2 9 C-2 7.02 -2 5.04 -2 3 C-1.34 3 -0.68 3 0 3 C0 2.01 0 1.02 0 0 Z " fill="#96B5D9" transform="translate(74,58)"/>
<path d="M0 0 C0.99 0.33 1.98 0.66 3 1 C2.19152271 2.16945792 1.37810888 3.33550461 0.5625 4.5 C0.11003906 5.1496875 -0.34242187 5.799375 -0.80859375 6.46875 C-1.20175781 6.9740625 -1.59492187 7.479375 -2 8 C-2.33 8 -2.66 8 -3 8 C-3 6.02 -3 4.04 -3 2 C-2.01 2 -1.02 2 0 2 C0 1.34 0 0.68 0 0 Z " fill="#146795" transform="translate(66,50)"/>
<path d="M0 0 C2.09749995 2.35968744 2.96905704 3.54616994 3.1875 6.75 C3.0946875 7.86375 3.0946875 7.86375 3 9 C2.01 9 1.02 9 0 9 C0 6.03 0 3.06 0 0 Z " fill="#B96337" transform="translate(90,43)"/>
<path d="M0 0 C2 3 2 3 2 5 C2.99 5.33 3.98 5.66 5 6 C5.66 6.66 6.32 7.32 7 8 C5.02 8 3.04 8 1 8 C0.67 5.36 0.34 2.72 0 0 Z " fill="#1E2129" transform="translate(98,101)"/>
<path d="M0 0 C2.64 0 5.28 0 8 0 C8 0.99 8 1.98 8 3 C5.69 3 3.38 3 1 3 C0.67 2.01 0.34 1.02 0 0 Z " fill="#3B677F" transform="translate(85,103)"/>
<path d="M0 0 C2.97 0.33 5.94 0.66 9 1 C8.67 1.66 8.34 2.32 8 3 C5.03 3 2.06 3 -1 3 C-0.67 2.01 -0.34 1.02 0 0 Z " fill="#E3AD8D" transform="translate(33,103)"/>
<path d="M0 0 C0.66 0.33 1.32 0.66 2 1 C0.95125002 3.62187494 0.35068687 4.79371361 -2.125 6.25 C-2.74375 6.4975 -3.3625 6.745 -4 7 C-4.66 6.34 -5.32 5.68 -6 5 C-4.10646634 3.10646634 -2.15473199 1.5801368 0 0 Z " fill="#97B1CE" transform="translate(69,82)"/>
<path d="M0 0 C0.66 0.33 1.32 0.66 2 1 C1.25 2.9375 1.25 2.9375 0 5 C-2.125 5.75 -2.125 5.75 -4 6 C-4 5.01 -4 4.02 -4 3 C-3.34 3 -2.68 3 -2 3 C-1.67 2.34 -1.34 1.68 -1 1 C-0.67 0.67 -0.34 0.34 0 0 Z " fill="#226380" transform="translate(76,100)"/>
<path d="M0 0 C1.32 0 2.64 0 4 0 C4.33 0.66 4.66 1.32 5 2 C5.99 2.33 6.98 2.66 8 3 C5.69 3.33 3.38 3.66 1 4 C0.67 2.68 0.34 1.36 0 0 Z " fill="#95B0CB" transform="translate(82,57)"/>
<path d="M0 0 C0.33 0.66 0.66 1.32 1 2 C0.34 2 -0.32 2 -1 2 C-1 2.99 -1 3.98 -1 5 C-2.98 5.99 -2.98 5.99 -5 7 C-5 5.68 -5 4.36 -5 3 C-2.5 1.25 -2.5 1.25 0 0 Z " fill="#85A5C2" transform="translate(82,47)"/>
<path d="M0 0 C3 1 3 1 4 3 C1.69 3.33 -0.62 3.66 -3 4 C-2.67 3.01 -2.34 2.02 -2 1 C-1.34 0.67 -0.68 0.34 0 0 Z " fill="#7B9AB6" transform="translate(90,30)"/>
<path d="M0 0 C3.465 1.485 3.465 1.485 7 3 C7 3.66 7 4.32 7 5 C2.25 4.125 2.25 4.125 0 3 C0 2.01 0 1.02 0 0 Z " fill="#210E08" transform="translate(33,98)"/>
<path d="M0 0 C2 1 2 1 3 3 C2.34 3 1.68 3 1 3 C1 3.99 1 4.98 1 6 C0.01 6.33 -0.98 6.66 -2 7 C-1.125 1.125 -1.125 1.125 0 0 Z " fill="#B17A53" transform="translate(34,92)"/>
<path d="M0 0 C2.475 0.99 2.475 0.99 5 2 C5 2.66 5 3.32 5 4 C4.01 4 3.02 4 2 4 C1.67 4.66 1.34 5.32 1 6 C0 5 0 5 -0.0625 2.4375 C-0.041875 1.633125 -0.02125 0.82875 0 0 Z " fill="#251F1D" transform="translate(70,48)"/>
</svg>
