<?xml version="1.0" encoding="UTF-8"?>
<svg version="1.1" xmlns="http://www.w3.org/2000/svg" width="351" height="350">
<path d="M0 0 C4.60091956 0.76811305 8.04389773 2.70875409 10.91015625 6.48828125 C12.75059805 10.28163629 13.32271787 13.92970964 13.94140625 18.07421875 C14.60248379 23.38522252 14.60248379 23.38522252 16.31640625 28.38671875 C16.57004443 29.9239693 16.77927537 31.46868093 16.96484375 33.015625 C17.08142334 33.95913818 17.19800293 34.90265137 17.31811523 35.87475586 C17.44130127 36.88932861 17.5644873 37.90390137 17.69140625 38.94921875 C18.83953109 48.06742519 20.24826976 57.08294629 21.90722656 66.11914062 C23.25391863 73.5821931 24.46364695 81.06983033 25.68798828 88.55371094 C26.1497091 91.36995678 26.6143425 94.18564056 27.08154297 97.00097656 C27.78048947 101.21798429 28.46914516 105.43658704 29.1524353 109.65615845 C29.42548893 111.33355116 29.70148668 113.01046763 29.98062134 114.68685913 C33.99892617 138.86293887 33.99892617 138.86293887 30.31640625 144.38671875 C27.71484375 145.1171875 27.71484375 145.1171875 24.69140625 145.57421875 C23.68851563 145.73277344 22.685625 145.89132813 21.65234375 146.0546875 C20.88148438 146.16425781 20.110625 146.27382812 19.31640625 146.38671875 C19.31382812 146.99 19.31125 147.59328125 19.30859375 148.21484375 C19.10670735 152.3871626 18.96534625 154.68370041 16.06640625 157.82421875 C7.43287554 162.31529529 -6.21852884 162.70379146 -15.68359375 161.38671875 C-19.22237046 159.15532344 -21.15996259 157.24301985 -22.68359375 153.38671875 C-23.3020713 150.46465466 -23.71063581 147.52002177 -24.12109375 144.5625 C-24.24669678 143.70166306 -24.3722998 142.84082611 -24.50170898 141.9539032 C-24.90219266 139.2032381 -25.29349043 136.4513736 -25.68359375 133.69921875 C-26.07490457 130.96511557 -26.46827128 128.23134561 -26.86547852 125.49809265 C-27.1118646 123.80006935 -27.35477004 122.10153583 -27.59350586 120.40242004 C-28.27501885 115.67617702 -29.15568463 111.06268412 -30.29663086 106.42472839 C-30.69886782 104.30627509 -30.74347673 102.41385973 -30.68359375 100.26171875 C-30.68359375 96.10664628 -31.38302169 93.28843493 -32.68359375 89.38671875 C-36.60513318 89.38671875 -37.88008831 90.74260196 -40.99609375 93.07421875 C-41.970625 93.79996094 -42.94515625 94.52570313 -43.94921875 95.2734375 C-46.09697379 96.93334532 -48.18793884 98.61894708 -50.24609375 100.38671875 C-52.68359375 102.38671875 -52.68359375 102.38671875 -54.68359375 102.38671875 C-55.17859375 103.87171875 -55.17859375 103.87171875 -55.68359375 105.38671875 C-57.51171875 107.04296875 -57.51171875 107.04296875 -59.93359375 108.88671875 C-64.09666992 112.11740839 -68.12870721 115.45102294 -72.12109375 118.88671875 C-77.75983709 123.71334909 -83.59822193 128.13061702 -89.68359375 132.38671875 C-89.62872446 134.25398216 -89.62872446 134.25398216 -88.68359375 136.38671875 C-86.03929449 138.57986963 -86.03929449 138.57986963 -82.74609375 140.63671875 C-81.55910487 141.42132184 -80.37423153 142.20913404 -79.19140625 143 C-78.60004883 143.39525879 -78.00869141 143.79051758 -77.39941406 144.19775391 C-74.04572046 146.52167079 -70.93455281 149.14519306 -67.8046875 151.7578125 C-65.82266475 153.27991837 -63.91903213 154.29741615 -61.68359375 155.38671875 C-60.35026042 156.72005208 -59.01692708 158.05338542 -57.68359375 159.38671875 C-56.02411227 160.3985977 -54.35778813 161.39937335 -52.68359375 162.38671875 C-51.67660589 163.37968171 -50.67750007 164.38066198 -49.68359375 165.38671875 C-42.65341406 171.40176474 -35.11453246 176.77751911 -27.65429688 182.23803711 C-22.6509597 185.90896384 -17.75160162 189.6679423 -12.94140625 193.58984375 C-8.64015983 197.01298104 -4.14363924 200.17521893 0.31640625 203.38671875 C5.00595079 206.7762705 9.37756883 210.11026669 13.31640625 214.38671875 C13.91453125 214.96421875 14.51265625 215.54171875 15.12890625 216.13671875 C17.49459672 220.61907964 16.91415517 225.29306483 15.5546875 230.0546875 C12.84441411 237.30707914 8.99204465 240.93394098 3.00390625 245.76171875 C-0.18335748 248.34369867 -3.34709292 250.93515567 -6.43359375 253.63671875 C-8.68461098 255.59012553 -10.99425028 257.36159636 -13.43359375 259.07421875 C-16.47088096 261.09140509 -16.47088096 261.09140509 -17.984375 262.71484375 C-20.50584713 265.19574046 -23.32658062 267.2891009 -26.12109375 269.44921875 C-30.78978347 273.08533982 -35.39758129 276.77361687 -39.93359375 280.57421875 C-43.710495 283.73851269 -47.48946627 286.89841856 -51.30859375 290.01171875 C-52.10523438 290.66398437 -52.901875 291.31625 -53.72265625 291.98828125 C-55.68359375 293.38671875 -55.68359375 293.38671875 -57.68359375 293.38671875 C-57.68359375 294.04671875 -57.68359375 294.70671875 -57.68359375 295.38671875 C-58.48796875 295.65484375 -59.29234375 295.92296875 -60.12109375 296.19921875 C-60.96671875 296.59109375 -61.81234375 296.98296875 -62.68359375 297.38671875 C-63.01359375 298.37671875 -63.34359375 299.36671875 -63.68359375 300.38671875 C-66.24609375 301.57421875 -66.24609375 301.57421875 -68.68359375 302.38671875 C-68.68359375 303.04671875 -68.68359375 303.70671875 -68.68359375 304.38671875 C-69.48796875 304.65484375 -70.29234375 304.92296875 -71.12109375 305.19921875 C-71.96671875 305.59109375 -72.81234375 305.98296875 -73.68359375 306.38671875 C-74.01359375 307.37671875 -74.34359375 308.36671875 -74.68359375 309.38671875 C-76.00767044 310.071586 -77.34268616 310.73542078 -78.68359375 311.38671875 C-79.38484375 312.08796875 -80.08609375 312.78921875 -80.80859375 313.51171875 C-81.42734375 314.13046875 -82.04609375 314.74921875 -82.68359375 315.38671875 C-83.34359375 315.38671875 -84.00359375 315.38671875 -84.68359375 315.38671875 C-84.68359375 316.04671875 -84.68359375 316.70671875 -84.68359375 317.38671875 C-86.34207552 318.40023539 -88.01025336 319.3979267 -89.68359375 320.38671875 C-90.30234375 321.00546875 -90.92109375 321.62421875 -91.55859375 322.26171875 C-93.86657046 324.56969546 -96.30791411 326.31192523 -99 328.140625 C-100.74066477 329.42895925 -102.16595561 330.8453056 -103.68359375 332.38671875 C-110.27165746 338.0336305 -119.04112838 344.68676735 -127.76953125 345.76953125 C-131.22829856 345.31516235 -132.9924354 344.61388428 -135.68359375 342.38671875 C-138.89432362 335.73861925 -139.96442917 328.50065287 -140.41015625 321.19921875 C-140.82820835 316.8992543 -141.90228224 312.78985251 -142.91796875 308.59765625 C-144.60567376 301.51962811 -146.00776841 294.68064858 -145.68359375 287.38671875 C-146.34359375 287.38671875 -147.00359375 287.38671875 -147.68359375 287.38671875 C-147.74417969 286.61585938 -147.80476563 285.845 -147.8671875 285.05078125 C-147.95097656 284.04789062 -148.03476563 283.045 -148.12109375 282.01171875 C-148.20230469 281.01398438 -148.28351563 280.01625 -148.3671875 278.98828125 C-148.53325001 276.40744262 -148.53325001 276.40744262 -149.68359375 274.38671875 C-149.81920239 272.63887408 -149.91586584 270.88797949 -149.99609375 269.13671875 C-150.42632583 262.86365748 -151.44532506 256.81043582 -152.62109375 250.63671875 C-154.39796076 241.24424941 -155.82462349 231.90783489 -156.68359375 222.38671875 C-156.78027344 221.42765625 -156.87695312 220.46859375 -156.9765625 219.48046875 C-157.12109375 217.07421875 -157.12109375 217.07421875 -156.68359375 213.38671875 C-154.43359375 211.26171875 -154.43359375 211.26171875 -151.68359375 209.38671875 C-149.87321006 206.47913282 -148.27652154 203.58258155 -146.7578125 200.51953125 C-142.79174869 192.91382864 -136.79593826 190.86649808 -129.07421875 188.21875 C-126.70896437 187.45288968 -126.70896437 187.45288968 -124.68359375 186.38671875 C-122.75442476 186.07896358 -120.8142609 185.83798391 -118.87109375 185.63671875 C-117.83339844 185.518125 -116.79570313 185.39953125 -115.7265625 185.27734375 C-112.09149919 185.40800071 -110.4905345 186.09413887 -107.68359375 188.38671875 C-106.00125936 191.93403218 -105.18656875 195.40137313 -104.5 199.25390625 C-104.29608643 200.37990234 -104.09217285 201.50589844 -103.88208008 202.66601562 C-103.56726685 204.44588867 -103.56726685 204.44588867 -103.24609375 206.26171875 C-102.80419227 208.70717719 -102.36148983 211.15249103 -101.91796875 213.59765625 C-101.59989258 215.35867676 -101.59989258 215.35867676 -101.27539062 217.15527344 C-100.34872689 222.21522444 -99.33125911 227.2539579 -98.296875 232.29296875 C-97.69750713 235.31653152 -97.18632153 238.34582879 -96.68359375 241.38671875 C-95.91164808 245.76325818 -94.63301433 249.39926756 -92.68359375 253.38671875 C-88.61620874 252.86507838 -86.67246297 251.85116611 -83.74609375 249.01171875 C-79.83383424 245.36814038 -75.77942668 242.03393717 -71.55859375 238.76171875 C-63.30886016 232.37117108 -63.30886016 232.37117108 -55.62109375 225.32421875 C-53.10135331 222.80447831 -50.49205217 220.58464273 -47.68359375 218.38671875 C-47.02359375 218.38671875 -46.36359375 218.38671875 -45.68359375 218.38671875 C-45.68359375 217.72671875 -45.68359375 217.06671875 -45.68359375 216.38671875 C-44.89984375 216.13921875 -44.11609375 215.89171875 -43.30859375 215.63671875 C-40.29194365 214.2002187 -39.9679381 213.33951044 -38.68359375 210.38671875 C-56.47608598 195.79396627 -74.53051098 181.54176564 -93.32861328 168.26123047 C-98.20518075 164.78907155 -102.88621117 161.10141894 -107.55834961 157.36083984 C-111.28932352 154.40195491 -115.11519049 151.72085062 -119.12109375 149.13671875 C-123.94564726 145.99947584 -127.80961752 142.61381882 -131.68359375 138.38671875 C-132.59109375 137.52046875 -133.49859375 136.65421875 -134.43359375 135.76171875 C-138.0908012 131.90133311 -139.85422462 129.24227851 -139.99609375 123.88671875 C-139.84770225 120.30158007 -139.58888092 117.5044614 -137.68359375 114.38671875 C-136.65234375 113.58234375 -135.62109375 112.77796875 -134.55859375 111.94921875 C-133.13546875 110.68078125 -133.13546875 110.68078125 -131.68359375 109.38671875 C-131.64193612 107.38715264 -131.64193612 105.38628486 -131.68359375 103.38671875 C-129.68359375 100.94921875 -129.68359375 100.94921875 -126.68359375 98.38671875 C-125.81154297 97.60167969 -125.81154297 97.60167969 -124.921875 96.80078125 C-120.52638385 92.85999608 -115.95339695 89.16220793 -111.328125 85.49609375 C-108.54824486 83.27875952 -105.80237042 81.02353188 -103.05859375 78.76171875 C-99.92111441 76.18466117 -96.76624145 73.6679331 -93.49609375 71.26171875 C-90.11948439 68.76685556 -86.98972406 66.06735475 -83.8515625 63.28125 C-80.09447053 59.99802548 -76.20948757 56.87195059 -72.33496094 53.72900391 C-70.51287076 52.24794953 -68.69576427 50.76090505 -66.87890625 49.2734375 C-60.64917041 44.18152882 -54.40453251 39.12758485 -47.99609375 34.26171875 C-42.98478323 30.44121469 -38.14994295 26.46299554 -33.36450195 22.36425781 C-30.02511276 19.50673192 -26.63624181 16.73291692 -23.18359375 14.01171875 C-20.55214812 11.93471061 -18.06793252 9.86751373 -15.74609375 7.44921875 C-13.68359375 5.38671875 -13.68359375 5.38671875 -10.68359375 4.38671875 C-10.14734375 3.70609375 -9.61109375 3.02546875 -9.05859375 2.32421875 C-5.94967389 -0.21200534 -3.92249514 -0.18740092 0 0 Z " fill="#121110" transform="translate(233.68359375,2.61328125)"/>
<path d="M0 0 C1.16317749 0.29342285 1.16317749 0.29342285 2.34985352 0.59277344 C4.15161133 10.80273437 4.15161133 10.80273437 5.95336914 21.01269531 C6.08346878 21.74983765 6.21356842 22.48697998 6.34761047 23.24645996 C6.61513834 24.76263298 6.88254081 26.27882813 7.14982605 27.79504395 C7.78891896 31.41954201 8.4295932 35.04373445 9.07568359 38.66699219 C11.08461831 49.95216161 12.99642819 61.25307057 14.88427734 72.55908203 C15.41280029 75.72044583 15.94479211 78.88121436 16.47680664 82.04199219 C21.78207126 113.69827739 21.78207126 113.69827739 21.34985352 126.59277344 C20.71176758 126.72554688 20.07368164 126.85832031 19.41625977 126.99511719 C18.17682617 127.26001953 18.17682617 127.26001953 16.91235352 127.53027344 C16.08864258 127.70429688 15.26493164 127.87832031 14.41625977 128.05761719 C12.37324148 128.40030337 12.37324148 128.40030337 11.34985352 129.59277344 C8.67712775 129.85652927 6.02902935 130.06125801 3.34985352 130.21777344 C2.59961914 130.26933594 1.84938477 130.32089844 1.07641602 130.37402344 C-0.83024298 130.49103861 -2.7404557 130.54670634 -4.65014648 130.59277344 C-6.22154054 129.02137938 -5.84594867 127.34585814 -5.96264648 125.15527344 C-6.37688425 119.9773014 -7.38198524 115.12689968 -8.58764648 110.09277344 C-10.09980901 103.70718872 -11.11338755 97.43951337 -11.71264648 90.90527344 C-12.98860929 74.40438165 -12.98860929 74.40438165 -19.65014648 59.59277344 C-23.37387851 58.94516787 -25.51828294 58.85790681 -28.74389648 60.95214844 C-30.37144234 62.30100493 -31.9831136 63.66911148 -33.58374023 65.04980469 C-37.27262586 68.10899519 -41.14799099 70.80714275 -45.08764648 73.53027344 C-51.09444658 77.71227297 -56.85236717 82.03326403 -62.45092773 86.75292969 C-68.23613375 91.59277344 -68.23613375 91.59277344 -70.65014648 91.59277344 C-70.65014648 92.25277344 -70.65014648 92.91277344 -70.65014648 93.59277344 C-72.03613281 94.87036133 -72.03613281 94.87036133 -73.98217773 96.31542969 C-75.04927979 97.11726685 -75.04927979 97.11726685 -76.13793945 97.93530273 C-76.90509277 98.50289307 -77.67224609 99.0704834 -78.46264648 99.65527344 C-80.02497791 100.82824436 -81.58617421 102.00272868 -83.14624023 103.17871094 C-83.91436035 103.75717773 -84.68248047 104.33564453 -85.47387695 104.93164062 C-89.2508068 107.81454736 -92.90042526 110.84184504 -96.54858398 113.88574219 C-99.19337913 116.03402375 -101.05704072 117.48951686 -104.45483398 118.08105469 C-108.86803663 117.40666553 -110.90991073 114.95694786 -113.77514648 111.78027344 C-114.79634776 110.68833403 -115.81973363 109.59843296 -116.84545898 108.51074219 C-117.32273437 108.00075684 -117.80000977 107.49077148 -118.29174805 106.96533203 C-119.94133204 105.29855252 -121.71422376 103.91272075 -123.65014648 102.59277344 C-123.20571659 97.84659763 -121.49882986 96.05483571 -117.96264648 92.96777344 C-117.2311438 92.32545776 -117.2311438 92.32545776 -116.48486328 91.67016602 C-111.5995874 87.43441762 -106.49930397 83.46830658 -101.38842773 79.51074219 C-97.42418126 76.43396661 -93.53544923 73.26829725 -89.65014648 70.09277344 C-84.63082247 65.99345773 -79.57623141 61.94881942 -74.46264648 57.96777344 C-69.37939186 54.00649844 -64.43841447 49.90871839 -59.54394531 45.71728516 C-55.08836594 41.91941811 -50.50292853 38.30950474 -45.88061523 34.71777344 C-41.88762098 31.60129012 -37.99712663 28.38734269 -34.15014648 25.09277344 C-29.12429036 20.79037083 -23.99471348 16.64899877 -18.75976562 12.60351562 C-15.94331844 10.42186661 -13.17888494 8.21310966 -10.49780273 5.86621094 C-9.53745117 5.03347656 -8.57709961 4.20074219 -7.58764648 3.34277344 C-6.75104492 2.59511719 -5.91444336 1.84746094 -5.05249023 1.07714844 C-2.65014648 -0.40722656 -2.65014648 -0.40722656 0 0 Z " fill="#F29A5B" transform="translate(234.650146484375,11.4072265625)"/>
<path d="M0 0 C2.51686321 9.86303754 4.50625911 19.65845366 5.9206543 29.74047852 C6.79907355 35.92067805 7.99539519 41.94100962 9.390625 48.02734375 C9.92608105 50.63940821 10.20880095 53.09543178 10.375 55.75 C10.82485952 60.9527231 13.25265854 67.25265854 17 71 C23.03719751 71.51162691 26.30527631 70.91759255 31 67 C31.74378906 66.401875 32.48757812 65.80375 33.25390625 65.1875 C35.61590778 63.2725539 37.96125134 61.3387563 40.30322266 59.39941406 C43.54216437 56.72810271 46.80334831 54.08408364 50.0625 51.4375 C50.75649902 50.87361572 51.45049805 50.30973145 52.16552734 49.72875977 C55.76618008 46.80541947 59.37416863 43.89210495 63 41 C64.66694274 39.66701183 66.33356864 38.33362741 68 37 C68.92111572 36.26499268 68.92111572 36.26499268 69.86083984 35.51513672 C71.97323738 33.82692345 74.08063569 32.13261183 76.1875 30.4375 C76.85330078 29.90705078 77.51910156 29.37660156 78.20507812 28.83007812 C82.18314125 25.61991972 85.87141509 22.25441387 89.43823242 18.59179688 C95.72009455 12.18914859 95.72009455 12.18914859 99.37890625 11.6484375 C102.77571209 12.10404484 104.21513199 13.35117053 106.8125 15.5625 C107.67230469 16.28566406 108.53210938 17.00882813 109.41796875 17.75390625 C110.27003906 18.49511719 111.12210938 19.23632812 112 20 C112.80050781 20.68964844 113.60101563 21.37929687 114.42578125 22.08984375 C116.29562846 23.71392064 118.15349268 25.34949067 120 27 C119.59781456 31.9870995 117.4789263 33.87994634 113.8125 37.125 C113.28003662 37.59873047 112.74757324 38.07246094 112.19897461 38.56054688 C107.70562363 42.50713622 103.02735877 46.21020164 98.29541016 49.86474609 C94.16599778 53.05653494 90.15311839 56.35722553 86.1875 59.75 C81.94594315 63.37587754 77.64328531 66.88584454 73.21484375 70.28125 C69.28869226 73.32799895 65.47068238 76.50779164 61.63085938 79.66210938 C53.421209 86.39697226 45.18979873 93.09938898 36.8125 99.625 C31.64287967 103.65459649 26.60856545 107.81760001 21.62573242 112.07543945 C17.55948043 115.54605029 13.41746562 118.90351163 9.21484375 122.20703125 C7.12516348 123.89867719 5.1627511 125.67767157 3.1875 127.5 C0.86299334 129.53807456 0.24961098 129.96813477 -2.9375 130.375 C-3.9584375 130.189375 -3.9584375 130.189375 -5 130 C-6.88514154 124.94281405 -7.77576932 119.97459071 -8.5859375 114.66796875 C-8.72767899 113.76719101 -8.86942047 112.86641327 -9.01545715 111.93833923 C-9.473302 109.02210101 -9.92409502 106.10481849 -10.375 103.1875 C-10.68995996 101.17618315 -11.00547304 99.16495285 -11.3215332 97.15380859 C-12.08574882 92.28599881 -12.84519766 87.41746201 -13.60296631 82.54864502 C-14.45601275 77.07275569 -15.31747698 71.59821933 -16.1875 66.125 C-16.33928711 65.16899902 -16.49107422 64.21299805 -16.64746094 63.22802734 C-17.71673858 56.57229588 -18.9009075 49.94135346 -20.125 43.3125 C-24.14332686 21.54318039 -24.14332686 21.54318039 -24 12 C-24.66 12 -25.32 12 -26 12 C-25.49317095 8.24946503 -24.91815613 6.42299389 -22 4 C-14.85329932 0.81461341 -7.75910507 -0.04564179 0 0 Z " fill="#F39A5C" transform="translate(121,194)"/>
<path d="M0 0 C2.30493164 1.32592773 2.30493164 1.32592773 4.66015625 3.18359375 C5.96533203 4.19752197 5.96533203 4.19752197 7.296875 5.23193359 C8.20953125 5.95977051 9.1221875 6.68760742 10.0625 7.4375 C11.95941631 8.91824948 13.85655021 10.39872026 15.75390625 11.87890625 C16.66285645 12.59449707 17.57180664 13.31008789 18.50830078 14.04736328 C21.47276733 16.37048727 24.47586333 18.63023815 27.5 20.875 C35.1534473 26.59597915 42.7169388 32.43409964 50.25 38.3125 C54.74947884 41.81957042 59.28089155 45.28462435 63.8125 48.75 C64.55467773 49.31759033 65.29685547 49.88518066 66.06152344 50.4699707 C70.05828163 53.5553452 70.05828163 53.5553452 74.2019043 56.43457031 C76 58 76 58 76.5625 61.9375 C76.38744784 65.21520071 76.10653089 65.87466954 73.875 68.5 C70.50571343 70.25788864 68.75778478 70.37294598 65 70 C62.6484375 68.56640625 62.6484375 68.56640625 60.375 66.5625 C56.82278133 63.5425871 53.25168199 60.64459349 49.5 57.875 C44.36166157 54.04759663 39.29852638 50.1324648 34.25 46.1875 C28.38010681 41.60195528 22.47253451 37.07604685 16.5 32.625 C11.33869863 28.77772414 6.23260507 24.88614339 1.26171875 20.79296875 C-1.01228955 18.9438001 -1.01228955 18.9438001 -3.60546875 17.23828125 C-9.61277455 13.09370593 -9.61277455 13.09370593 -10.734375 9.92578125 C-10.98225727 6.20066155 -10.2447806 4.27974926 -7.8125 1.5 C-4.71694918 -0.15096044 -3.43715035 -0.3846862 0 0 Z " fill="#005C8D" transform="translate(135,139)"/>
<path d="M0 0 C2.2040393 2.56330981 2.75609247 4.20277593 3.44042969 7.48583984 C3.75947266 8.98244141 3.75947266 8.98244141 4.08496094 10.50927734 C4.28992188 11.54568359 4.49488281 12.58208984 4.70605469 13.64990234 C4.92648438 14.67857422 5.14691406 15.70724609 5.37402344 16.76708984 C6.38857632 21.65710871 7.26673407 26.25225236 6.95605469 31.27490234 C4.38988837 27.42565287 4.40507793 24.83997195 3.95605469 20.27490234 C3.29605469 20.27490234 2.63605469 20.27490234 1.95605469 20.27490234 C1.95605469 21.92490234 1.95605469 23.57490234 1.95605469 25.27490234 C1.62605469 25.27490234 1.29605469 25.27490234 0.95605469 25.27490234 C0.46105469 20.32490234 0.46105469 20.32490234 -0.04394531 15.27490234 C0.28605469 15.27490234 0.61605469 15.27490234 0.95605469 15.27490234 C0.95605469 12.96490234 0.95605469 10.65490234 0.95605469 8.27490234 C0.29605469 8.27490234 -0.36394531 8.27490234 -1.04394531 8.27490234 C-1.37394531 7.94490234 -1.70394531 7.61490234 -2.04394531 7.27490234 C-2.04394531 8.92490234 -2.04394531 10.57490234 -2.04394531 12.27490234 C-3.90171297 9.13991943 -4.24535007 6.90018802 -4.04394531 3.27490234 C-8.49894531 3.76990234 -8.49894531 3.76990234 -13.04394531 4.27490234 C-12.04394531 2.27490234 -12.04394531 2.27490234 -8.04394531 0.27490234 C-11.34394531 0.27490234 -14.64394531 0.27490234 -18.04394531 0.27490234 C-13.72786201 -4.04118096 -4.58203574 -3.86725568 0 0 Z " fill="#5D4F48" transform="translate(125.0439453125,190.72509765625)"/>
<path d="M0 0 C2.5 1 2.5 1 5 3 C5.5357041 5.83809194 5.28314244 8.07419475 5 11 C4.67 11.33 4.34 11.66 4 12 C4.23467321 13.48927229 4.54017951 14.96750044 4.875 16.4375 C6.60500377 24.6433287 7.13505275 32.62672923 7 41 C6.67 41 6.34 41 6 41 C4.5130647 34.00941138 3.37058089 27.02200308 2.4375 19.9375 C2.24897461 18.5443457 2.24897461 18.5443457 2.05664062 17.12304688 C1.29259097 11.42267644 0.61456492 5.7183803 0 0 Z " fill="#653820" transform="translate(122,196)"/>
<path d="M0 0 C0.66 0.33 1.32 0.66 2 1 C1.67 1.33 1.34 1.66 1 2 C1.11221436 3.37610244 1.23992422 4.75095323 1.375 6.125 C1.43384548 9.18986872 1.27350895 10.60341203 -0.484375 13.15234375 C-2.25061015 14.93682514 -3.94622841 16.55492542 -6 18 C-6.66 18 -7.32 18 -8 18 C-8.33 21.3 -8.66 24.6 -9 28 C-9.33 28 -9.66 28 -10 28 C-10.39530988 17.91959799 -10.39530988 17.91959799 -8 14 C-6.96875 13.195625 -5.9375 12.39125 -4.875 11.5625 C-1.6611351 9.29217442 -1.6611351 9.29217442 -1.75 5.875 C-1.87375 4.451875 -1.87375 4.451875 -2 3 C-1.34 2.01 -0.68 1.02 0 0 Z " fill="#65696C" transform="translate(104,103)"/>
<path d="M0 0 C0.66 0.33 1.32 0.66 2 1 C2.8515625 3.94921875 2.8515625 3.94921875 3.625 7.6875 C3.88539063 8.90824219 4.14578125 10.12898437 4.4140625 11.38671875 C4.94737715 14.67549245 5.1122665 17.67793207 5 21 C2.43383368 17.15075052 2.44902324 14.5650696 2 10 C1.34 10 0.68 10 0 10 C0 11.65 0 13.3 0 15 C-0.33 15 -0.66 15 -1 15 C-1.33 11.7 -1.66 8.4 -2 5 C-1.67 5 -1.34 5 -1 5 C-0.67 3.35 -0.34 1.7 0 0 Z " fill="#626060" transform="translate(127,201)"/>
<path d="M0 0 C3.63 0 7.26 0 11 0 C11 0.33 11 0.66 11 1 C8.36 1.33 5.72 1.66 3 2 C2.67 4.97 2.34 7.94 2 11 C1.34 11 0.68 11 0 11 C0 7.37 0 3.74 0 0 Z " fill="#909497" transform="translate(250,147)"/>
<path d="M0 0 C0 3.68072261 -0.73731743 4.19508747 -3.25 6.75 C-3.85328125 7.38421875 -4.4565625 8.0184375 -5.078125 8.671875 C-5.71234375 9.11015625 -6.3465625 9.5484375 -7 10 C-8.32 9.67 -9.64 9.34 -11 9 C-7.37 6.03 -3.74 3.06 0 0 Z " fill="#D98A54" transform="translate(167,64)"/>
<path d="M0 0 C0.66 0.33 1.32 0.66 2 1 C-3.0940919 7.70459519 -3.0940919 7.70459519 -6.875 8.9375 C-7.57625 8.958125 -8.2775 8.97875 -9 9 C-6.31941902 5.42589203 -3.57410797 2.68058098 0 0 Z " fill="#6E6E6E" transform="translate(166,238)"/>
<path d="M0 0 C0.33 0 0.66 0 1 0 C2.33257403 9.41002278 2.33257403 9.41002278 1 14 C0.67 14 0.34 14 0 14 C-0.19393875 11.85473901 -0.37998676 9.70876323 -0.5625 7.5625 C-0.71912109 5.77005859 -0.71912109 5.77005859 -0.87890625 3.94140625 C-0.91886719 2.97074219 -0.95882812 2.00007812 -1 1 C-0.67 0.67 -0.34 0.34 0 0 Z " fill="#E39458" transform="translate(105,250)"/>
<path d="M0 0 C0.66 0.33 1.32 0.66 2 1 C2 3.64 2 6.28 2 9 C0.5 7.8125 0.5 7.8125 -1 6 C-1.25 3.375 -1.25 3.375 -1 1 C-0.67 0.67 -0.34 0.34 0 0 Z " fill="#020101" transform="translate(125,198)"/>
<path d="M0 0 C-1.49097658 3.7952131 -3.75700849 5.61042731 -7 8 C-7.66 7.67 -8.32 7.34 -9 7 C-7.88121617 5.82737096 -6.75476949 4.66204862 -5.625 3.5 C-4.68527344 2.52546875 -4.68527344 2.52546875 -3.7265625 1.53125 C-2 0 -2 0 0 0 Z " fill="#5A5A5A" transform="translate(150,67)"/>
<path d="M0 0 C0.99 0.495 0.99 0.495 2 1 C2.73075648 3.3140622 3.40138258 5.64828869 4 8 C4.66 8 5.32 8 6 8 C6 8.99 6 9.98 6 11 C5.01 10.67 4.02 10.34 3 10 C2.05078125 7.71484375 2.05078125 7.71484375 1.3125 4.9375 C1.06113281 4.01839844 0.80976562 3.09929687 0.55078125 2.15234375 C0.36902344 1.44207031 0.18726562 0.73179687 0 0 Z " fill="#7E7F82" transform="translate(95,335)"/>
<path d="M0 0 C-3.45245824 2.30163882 -4.94738713 2.34490322 -9 2 C-9.66 1.34 -10.32 0.68 -11 0 C-3.57142857 -1.28571429 -3.57142857 -1.28571429 0 0 Z " fill="#99979D" transform="translate(112,346)"/>
<path d="M0 0 C2 1 2 1 2 1 Z " fill="#DEEAF1" transform="translate(137,188)"/>
</svg>
